<?xml version="1.0" encoding="UTF-8"?>
<svg version="1.1" xmlns="http://www.w3.org/2000/svg" width="512" height="512">
<path d="M0 0 C1.37303516 -0.00258633 2.74606957 -0.00560024 4.11910295 -0.0090034 C7.88245776 -0.01704539 11.64579346 -0.01886141 15.40915585 -0.01960087 C19.47207586 -0.02145635 23.53498607 -0.02900623 27.59790039 -0.03573608 C36.47837375 -0.04930066 45.35884258 -0.05534138 54.23932457 -0.05974674 C59.78890961 -0.0625127 65.33849292 -0.06675073 70.88807678 -0.07125092 C86.265896 -0.08344182 101.64371383 -0.09374104 117.02153778 -0.09712601 C118.4970321 -0.09745536 118.4970321 -0.09745536 120.00233439 -0.09779136 C120.98829842 -0.09800964 121.97426246 -0.09822791 122.9901042 -0.09845281 C124.98790964 -0.09889627 126.98571507 -0.09934283 128.98352051 -0.09979248 C129.97449267 -0.10001391 130.96546484 -0.10023534 131.98646647 -0.10046348 C148.03229417 -0.10440881 164.07807638 -0.12185554 180.12388653 -0.145152 C196.61445333 -0.16890006 213.10499735 -0.18132945 229.59558153 -0.18249393 C238.84767669 -0.18340882 248.0997126 -0.18911409 257.35179138 -0.20731354 C265.23255123 -0.22276129 273.1132335 -0.22780757 280.99400562 -0.21957543 C285.01004946 -0.21568524 289.02593732 -0.21651809 293.04196167 -0.23063278 C296.72860025 -0.2434705 300.41496722 -0.2420889 304.10160595 -0.23004207 C306.04568777 -0.22719279 307.98977474 -0.23894564 309.93381834 -0.25146413 C338.02522138 -0.09577236 361.64846109 11.82203997 381.70422363 30.89044189 C400.69432635 50.42140197 409.738029 75.66808574 409.71966553 102.56121826 C409.72225186 103.93425342 409.72526576 105.30728784 409.72866893 106.68032122 C409.73671091 110.44367602 409.73852693 114.20701173 409.7392664 117.97037411 C409.74112188 122.03329412 409.74867176 126.09620433 409.75540161 130.15911865 C409.76896618 139.03959201 409.77500691 147.92006084 409.77941227 156.80054283 C409.78217823 162.35012787 409.78641626 167.89971118 409.79091644 173.44929504 C409.80310734 188.82711426 409.81340657 204.2049321 409.81679153 219.58275604 C409.8170111 220.56641892 409.81723067 221.5500818 409.81745689 222.56355265 C409.81767516 223.54951669 409.81789344 224.53548072 409.81811833 225.55132246 C409.81856179 227.5491279 409.81900836 229.54693333 409.81945801 231.54473877 C409.81967944 232.53571094 409.81990087 233.5266831 409.82012901 234.54768473 C409.82407434 250.59351243 409.84152107 266.63929465 409.86481753 282.68510479 C409.88856558 299.1756716 409.90099498 315.66621562 409.90215945 332.15679979 C409.90307434 341.40889495 409.90877961 350.66093086 409.92697906 359.91300964 C409.94242682 367.79376949 409.94747309 375.67445176 409.93924096 383.55522388 C409.93535077 387.57126772 409.93618361 391.58715558 409.95029831 395.60317993 C409.96313603 399.28981851 409.96175443 402.97618548 409.9497076 406.66282421 C409.94685831 408.60690604 409.95861116 410.550993 409.97112966 412.4950366 C409.81543789 440.58643964 397.89762556 464.20967935 378.82922363 484.26544189 C359.29826356 503.25554461 334.05157978 512.29924726 307.15844727 512.28088379 C305.7854121 512.28347012 304.41237769 512.28648402 303.03934431 512.28988719 C299.2759895 512.29792917 295.5126538 512.2997452 291.74929142 512.30048466 C287.68637141 512.30234014 283.62346119 512.30989002 279.56054688 512.31661987 C270.68007352 512.33018445 261.79960469 512.33622517 252.9191227 512.34063053 C247.36953766 512.34339649 241.81995435 512.34763452 236.27037048 512.3521347 C220.89255126 512.3643256 205.51473343 512.37462483 190.13690948 512.3780098 C189.15324661 512.37822936 188.16958373 512.37844893 187.15611288 512.37867515 C186.17014884 512.37889343 185.1841848 512.3791117 184.16834307 512.3793366 C182.17053763 512.37978006 180.17273219 512.38022662 178.17492676 512.38067627 C177.18395459 512.3808977 176.19298242 512.38111913 175.1719808 512.38134727 C159.1261531 512.3852926 143.08037088 512.40273933 127.03456074 512.42603579 C110.54399393 512.44978385 94.05344991 512.46221324 77.56286573 512.46337771 C68.31077057 512.46429261 59.05873467 512.46999787 49.80665588 512.48819733 C41.92589604 512.50364508 34.04521376 512.50869136 26.16444165 512.50045922 C22.14839781 512.49656903 18.13250995 512.49740187 14.1164856 512.51151657 C10.42984702 512.52435429 6.74348004 512.52297269 3.05684131 512.51092586 C1.11275949 512.50807657 -0.83132747 512.51982943 -2.77537107 512.53234792 C-30.86677412 512.37665615 -54.49001382 500.45884382 -74.54577637 481.39044189 C-93.53587908 461.85948182 -102.57958174 436.61279805 -102.56121826 409.71966553 C-102.56380459 408.34663037 -102.5668185 406.97359595 -102.57022166 405.60056257 C-102.57826365 401.83720777 -102.58007967 398.07387206 -102.58081913 394.31050968 C-102.58267461 390.24758967 -102.59022449 386.18467945 -102.59695435 382.12176514 C-102.61051892 373.24129178 -102.61655964 364.36082295 -102.620965 355.48034096 C-102.62373096 349.93075592 -102.62796899 344.38117261 -102.63246918 338.83158875 C-102.64466008 323.45376953 -102.6549593 308.07595169 -102.65834427 292.69812775 C-102.65856383 291.71446487 -102.6587834 290.73080199 -102.65900962 289.71733114 C-102.6592279 288.7313671 -102.65944618 287.74540307 -102.65967107 286.72956133 C-102.66011453 284.73175589 -102.66056109 282.73395046 -102.66101074 280.73614502 C-102.66123217 279.74517285 -102.6614536 278.75420069 -102.66168174 277.73319906 C-102.66562707 261.68737136 -102.6830738 245.64158914 -102.70637026 229.595779 C-102.73011832 213.10521219 -102.74254771 196.61466817 -102.74371219 180.124084 C-102.74462708 170.87198883 -102.75033235 161.61995293 -102.7685318 152.36787415 C-102.78397956 144.4871143 -102.78902583 136.60643202 -102.7807937 128.72565991 C-102.7769035 124.70961607 -102.77773635 120.69372821 -102.79185104 116.67770386 C-102.80468877 112.99106528 -102.80330716 109.30469831 -102.79126033 105.61805958 C-102.78841105 103.67397775 -102.8001639 101.72989079 -102.81268239 99.78584719 C-102.65699062 71.69444415 -90.7391783 48.07120444 -71.67077637 28.01544189 C-52.1398163 9.02533918 -26.89313252 -0.01836347 0 0 Z " fill="#F5F7FE" transform="translate(102.4207763671875,-0.14044189453125)"/>
<path d="M0 0 C1.15951172 -0.020625 2.31902344 -0.04125 3.51367188 -0.0625 C11.33550511 -0.098074 17.47249594 0.20323621 23.80859375 5.23046875 C28.24068761 10.26896579 30.3125 13.46465077 30.3125 20.25 C30.90675781 20.38535156 31.50101563 20.52070312 32.11328125 20.66015625 C46.22303145 24.32474145 57.45559035 33.69805153 65.1875 45.9375 C74.04064965 62.63918657 72.75840231 79.93198991 72.3125 98.25 C73.23804688 98.53746094 74.16359375 98.82492188 75.1171875 99.12109375 C80.84870753 101.14604398 84.03698217 104.15230029 86.6875 109.5 C88.99747603 115.26056263 88.94487209 120.50972096 87.5625 126.5 C86.99972208 129.41647074 86.99972208 129.41647074 89.1875 131.9375 C89.88875 132.700625 90.59 133.46375 91.3125 134.25 C92.29706347 137.2036904 92.44068426 139.35295141 92.5625 142.4375 C92.96845341 147.42025079 94.20480885 150.26055349 97.03515625 154.296875 C101.15835486 160.60146003 102.2862261 167.86852797 101.3125 175.25 C99.9830995 180.59880858 98.34114392 185.81012881 96.19921875 190.890625 C94.37498922 195.74452208 94.75496215 199.90684063 96.6875 204.5625 C97.85074492 206.48632814 99.0654415 208.37941224 100.3125 210.25 C100.168125 211.1575 100.02375 212.065 99.875 213 C100.43011917 217.12374242 101.58984479 217.64139365 104.8125 220.125 C106.29948383 221.18516439 107.79577899 222.23283393 109.3125 223.25 C111.54347591 222.18542643 113.30858857 221.2533899 115.1875 219.625 C118.14899997 217.70873531 119.84727854 217.68424956 123.3125 218.25 C126.24265518 220.3191008 128.07631186 221.902533 128.71313477 225.53564453 C128.80466823 228.22759515 128.74859353 230.87196398 128.625 233.5625 C128.60244141 234.49384766 128.57988281 235.42519531 128.55664062 236.38476562 C128.49794561 238.67387127 128.40827065 240.96214561 128.3125 243.25 C133.2625 243.25 138.2125 243.25 143.3125 243.25 C143.27769531 241.69667969 143.24289062 240.14335937 143.20703125 238.54296875 C143.1788956 236.50782329 143.1515952 234.47266617 143.125 232.4375 C143.08729492 230.90125977 143.08729492 230.90125977 143.04882812 229.33398438 C143.03916016 228.35107422 143.02949219 227.36816406 143.01953125 226.35546875 C143.0038208 225.44949951 142.98811035 224.54353027 142.97192383 223.61010742 C143.3125 221.25 143.3125 221.25 144.62768555 219.46606445 C147.59106745 217.32715629 149.7818023 217.72039535 153.3125 218.25 C159.6520619 221.7566991 163.07980278 228.00991476 166.3125 234.25 C166.65539062 234.87519531 166.99828125 235.50039063 167.3515625 236.14453125 C171.13435541 244.25809174 170.46716577 254.79782386 167.75 263.125 C165.02513298 269.64521752 160.60716049 275.55667214 155.3125 280.25 C154.6525 280.25 153.9925 280.25 153.3125 280.25 C153.3125 286.19 153.3125 292.13 153.3125 298.25 C154.9625 298.91 156.6125 299.57 158.3125 300.25 C163.253591 303.46170915 167.07076867 308.31702187 168.86108398 313.98754883 C169.90133309 319.20117157 169.58440246 324.64087376 169.625 329.9375 C169.65400391 331.17951172 169.68300781 332.42152344 169.71289062 333.70117188 C169.78264806 343.82673192 168.07478334 350.60439292 161.3125 358.25 C152.46450459 364.99194672 143.11776523 365.13244569 132.50146484 364.92236328 C129.92030032 364.87468228 127.34321949 364.88133789 124.76171875 364.89453125 C123.10414224 364.88338885 121.44658288 364.8691761 119.7890625 364.8515625 C119.02647125 364.85338531 118.26388 364.85520813 117.47817993 364.85708618 C112.34442691 364.7214576 109.32943922 363.70164028 105.3125 360.25 C100.53950211 355.01124668 100.72674177 350.10798695 100.78125 343.375 C100.7774231 342.33230957 100.77359619 341.28961914 100.76965332 340.21533203 C100.76693822 338.01659171 100.77427115 335.81781886 100.79101562 333.61914062 C100.81242996 330.26098353 100.79119921 326.90496585 100.765625 323.546875 C100.76826835 321.4062453 100.77339346 319.26561692 100.78125 317.125 C100.77315308 316.12484863 100.76505615 315.12469727 100.75671387 314.09423828 C100.83424135 308.30717062 101.36211545 304.79348141 105.3125 300.25 C109.88461821 296.47303279 111.06648581 296.25 117.3125 296.25 C117.3125 290.97 117.3125 285.69 117.3125 280.25 C115.9925 279.59 114.6725 278.93 113.3125 278.25 C109.33635092 274.47800528 106.51703796 270.27144757 104.3125 265.25 C102.61576449 266.89200211 100.95897236 268.55789792 99.3125 270.25 C98.24322266 271.34248047 98.24322266 271.34248047 97.15234375 272.45703125 C88.74067357 281.37424421 84.22445407 289.46934781 84.15478516 301.82861328 C84.14452301 303.13992218 84.13426086 304.45123108 84.12368774 305.80227661 C84.12024982 306.49778751 84.1168119 307.19329842 84.11326981 307.90988541 C84.10142589 310.09552126 84.08196308 312.28096437 84.06015015 314.46652222 C83.99869165 320.67764917 83.94438895 326.88875027 83.91113281 333.10009766 C83.89021349 336.90560422 83.85494465 340.71074857 83.81037521 344.51604843 C83.79620586 345.96489077 83.78749065 347.41379707 83.78432083 348.86270523 C83.77942405 350.88527354 83.75467754 352.9077645 83.72900391 354.93017578 C83.71687363 356.65628586 83.71687363 356.65628586 83.70449829 358.41726685 C83.3125 361.25 83.3125 361.25 81.94662476 363.15670776 C80.3125 364.25 80.3125 364.25 77.75 364.0625 C75.3125 363.25 75.3125 363.25 73.3125 361.25 C73.3125 354.98 73.3125 348.71 73.3125 342.25 C51.2025 342.25 29.0925 342.25 6.3125 342.25 C6.3125 348.19 6.3125 354.13 6.3125 360.25 C3.3125 364.25 3.3125 364.25 0.8125 364.75 C-1.6875 364.25 -1.6875 364.25 -4.6875 360.25 C-4.6875 354.31 -4.6875 348.37 -4.6875 342.25 C-26.7975 342.25 -48.9075 342.25 -71.6875 342.25 C-71.6875 348.52 -71.6875 354.79 -71.6875 361.25 C-74.6875 364.25 -74.6875 364.25 -77.25 364.5625 C-79.6875 364.25 -79.6875 364.25 -81.6875 362.25 C-81.9390564 359.50196838 -81.9390564 359.50196838 -81.94287109 355.95532227 C-81.94649155 355.30945663 -81.950112 354.663591 -81.95384216 353.99815369 C-81.96074389 352.59259518 -81.96324014 351.18700982 -81.96189499 349.78143501 C-81.96092935 347.54754249 -81.97388068 345.31413078 -81.99087524 343.08030701 C-82.03710335 336.72781236 -82.06170296 330.37536203 -82.06835938 324.02270508 C-82.0734134 320.13629945 -82.09787001 316.25038688 -82.13368607 312.36414909 C-82.14340673 310.891204 -82.14585879 309.41819033 -82.14051437 307.94522285 C-82.09718427 295.40070814 -83.76368757 285.35289382 -92.5625 276 C-93.58072917 274.86979167 -94.59895833 273.73958333 -95.6171875 272.609375 C-96.36693848 271.79436523 -96.36693848 271.79436523 -97.13183594 270.96289062 C-99.71718403 268.11624872 -102.20075518 265.18274311 -104.6875 262.25 C-111.27373022 265.34121165 -115.51458403 270.81510375 -118.6875 277.25 C-120.34574908 282.22710296 -120.97832643 286.74690845 -120.95874023 291.95776367 C-120.96396698 292.69363205 -120.96919373 293.42950043 -120.97457886 294.18766785 C-120.98475847 295.77267025 -120.99058863 297.3577055 -120.99246025 298.94273949 C-120.99614418 301.45232438 -121.01292261 303.96152125 -121.03321838 306.47102356 C-121.08845883 313.60129598 -121.11938337 320.73162279 -121.14379883 327.86206055 C-121.15966637 332.23392541 -121.18986589 336.60550896 -121.22856331 340.97722816 C-121.24020906 342.6401706 -121.24614362 344.30316326 -121.24624443 345.96614647 C-121.24643635 348.28787085 -121.26468844 350.60881645 -121.28686523 352.93041992 C-121.27999947 353.95833649 -121.27999947 353.95833649 -121.272995 355.00701904 C-121.31885873 358.02500142 -121.56299045 360.02894749 -123.05628967 362.68013 C-124.6875 364.25 -124.6875 364.25 -127.1875 364.6875 C-130.21601501 364.15750987 -130.9140913 363.74082495 -132.6875 361.25 C-132.98871792 358.76639559 -133.10779064 356.53192707 -133.09155273 354.04736328 C-133.10184761 352.95149147 -133.10184761 352.95149147 -133.11235046 351.83348083 C-133.13068212 349.41222793 -133.12676739 346.99162014 -133.12109375 344.5703125 C-133.12565713 342.87938223 -133.13096317 341.18845381 -133.13697815 339.49752808 C-133.14592514 335.94489032 -133.14347357 332.39247706 -133.13354492 328.83984375 C-133.12213579 324.31990814 -133.14213328 319.8007632 -133.17146206 315.28093147 C-133.18996245 311.78210631 -133.18950292 308.28346502 -133.18382454 304.78460312 C-133.18367256 303.12068459 -133.18961316 301.45675258 -133.20211601 299.79288101 C-133.29863399 284.8233068 -131.24518315 271.94609054 -120.984375 260.3203125 C-119.30203441 257.6346483 -119.54745881 256.2912926 -120 253.1875 C-121.26209631 242.40231338 -121.65580246 233.45943889 -115.25 224.1640625 C-111.18124494 219.21504793 -106.28922718 215.33365597 -101.23828125 211.42578125 C-96.86348154 207.69413739 -93.94477222 204.38168411 -93.25 198.625 C-93.25773796 193.81199153 -94.88025339 189.8804166 -96.6875 185.5 C-100.60618966 175.74989985 -101.33184757 167.66406385 -97.375 157.6875 C-96.12317256 154.91693897 -94.9858044 152.60924069 -93.04296875 150.26953125 C-91.24948289 147.59739237 -91.35386433 145.69332603 -91.3125 142.5 C-91.02355685 137.10858348 -89.78716352 134.22900562 -86.69921875 129.90234375 C-85.45474508 128.233281 -85.45474508 128.233281 -85.875 125.875 C-86.143125 125.00875 -86.41125 124.1425 -86.6875 123.25 C-87.38103192 116.37446801 -86.7934402 110.94002206 -82.6875 105.25 C-79.23264067 101.43606821 -75.55674713 99.75553323 -70.6875 98.25 C-70.70321045 97.41452637 -70.7189209 96.57905273 -70.73510742 95.71826172 C-70.78697756 92.54608565 -70.8242034 89.37412929 -70.85229492 86.20166016 C-70.87437167 84.18246888 -70.91253657 82.16347358 -70.95117188 80.14453125 C-71.08264521 62.35180637 -67.35940684 48.54758326 -54.9609375 35.53125 C-54.21070313 34.7784375 -53.46046875 34.025625 -52.6875 33.25 C-52.06101562 32.6003125 -51.43453125 31.950625 -50.7890625 31.28125 C-45.17381831 25.87924293 -36.6607141 20.25 -28.6875 20.25 C-28.81125 19.445625 -28.935 18.64125 -29.0625 17.8125 C-28.51366129 12.59853224 -26.09380382 9.16204326 -22.6875 5.25 C-15.60613257 -0.21789131 -8.54282674 0.03736611 0 0 Z " fill="#040303" transform="translate(237.6875,93.75)"/>
<path d="M0 0 C1.77287888 -0.0129007 1.77287888 -0.0129007 3.58157349 -0.02606201 C4.88498184 -0.03032196 6.1883902 -0.03458191 7.53129578 -0.03897095 C8.91262519 -0.04687129 10.29395254 -0.0551402 11.67527771 -0.06375122 C16.21800259 -0.08997834 20.76073673 -0.10527913 25.30351257 -0.11953735 C26.8666605 -0.12489668 28.42980836 -0.13027418 29.99295616 -0.13566971 C36.49455752 -0.1572991 42.99615638 -0.17603634 49.49778461 -0.1872921 C58.81912736 -0.20353495 68.14005349 -0.23671974 77.46123916 -0.29369295 C84.01332048 -0.33237706 90.5652903 -0.35192293 97.11748284 -0.35721266 C101.0318733 -0.36086817 104.94581949 -0.37290972 108.86008644 -0.4053154 C112.54315542 -0.43536987 116.22551073 -0.44171786 119.90867615 -0.42993164 C121.90328647 -0.42960538 123.89785257 -0.45408844 125.89230347 -0.47930908 C135.63782915 -0.41120641 135.63782915 -0.41120641 138.72018433 2.62786865 C139.28779984 3.46145905 139.85541534 4.29504944 140.44023132 5.15390015 C140.77023132 5.48390015 141.10023132 5.81390015 141.44023132 6.15390015 C141.8263245 11.17311139 141.45881798 14.09041811 138.44023132 18.15390015 C134.54837404 22.04575742 129.62418843 21.30948216 124.39872742 21.32748413 C123.1883506 21.33751465 123.1883506 21.33751465 121.95352173 21.3477478 C120.20475637 21.36177597 118.45597295 21.3736771 116.70718002 21.3836956 C113.94223654 21.40012122 111.17742814 21.42335677 108.41255188 21.44859314 C100.55270615 21.51934749 92.69280739 21.5796376 84.83280945 21.63070679 C80.02355657 21.66243063 75.21446276 21.7036807 70.40533829 21.75090218 C68.57048514 21.7669523 66.73559541 21.77925989 64.90069199 21.78780937 C62.34127803 21.79991256 59.78224128 21.82403791 57.22294617 21.85092163 C56.4603096 21.85151077 55.69767303 21.85209991 54.91192627 21.85270691 C50.71850083 21.77345545 50.71850083 21.77345545 47.44023132 24.15390015 C47.19015402 26.69580017 47.19015402 26.69580017 47.44023132 29.15390015 C49.40369851 31.11736734 53.21250364 30.33846461 55.89750671 30.35922241 C56.67793839 30.36912201 57.45837006 30.37902161 58.26245117 30.38922119 C60.85423195 30.4209279 63.44603109 30.44562965 66.03788757 30.4703064 C67.8300831 30.49086802 69.62227369 30.51186427 71.41445923 30.53327942 C76.14088453 30.58858191 80.86735417 30.63795498 85.59385681 30.68612671 C90.41313137 30.73628219 95.2323412 30.79199926 100.05155945 30.84725952 C109.51439483 30.95494104 118.97728632 31.05636366 128.44023132 31.15390015 C128.47496572 34.68252107 128.49590418 38.21109743 128.51445007 41.73983765 C128.52440002 42.73362427 128.53434998 43.72741089 128.54460144 44.75131226 C128.57303719 51.96800694 127.93763033 58.33369403 125.44023132 65.15390015 C125.08831726 66.15421265 124.7364032 67.15452515 124.37382507 68.18515015 C117.4220111 86.35622825 104.36080936 98.33306447 86.97929382 106.27890015 C74.13542346 111.3967642 56.1606381 111.21856335 43.25273132 106.41171265 C25.23627486 98.35435295 12.7558333 86.75139433 5.44023132 68.15390015 C5.08831726 67.34823608 4.7364032 66.54257202 4.37382507 65.7124939 C2.62187732 60.91113081 2.31640542 56.17612449 2.34257507 51.09921265 C2.34579773 49.9906189 2.34902039 48.88202515 2.3523407 47.73983765 C2.3607196 46.59772827 2.36909851 45.4556189 2.37773132 44.27890015 C2.38224304 43.11358765 2.38675476 41.94827515 2.3914032 40.74765015 C2.40314351 37.88301369 2.41956563 35.01848381 2.44023132 32.15390015 C3.21737488 32.12884399 3.99451843 32.10378784 4.79521179 32.07797241 C8.30206202 31.96223218 11.80862877 31.83940662 15.31523132 31.71640015 C17.15021179 31.65742554 17.15021179 31.65742554 19.02226257 31.59725952 C20.18886414 31.55536499 21.3554657 31.51347046 22.55741882 31.4703064 C23.636203 31.43364868 24.71498718 31.39699097 25.82646179 31.35922241 C28.42092668 31.32013372 28.42092668 31.32013372 30.44023132 30.15390015 C30.44023132 27.84390015 30.44023132 25.53390015 30.44023132 23.15390015 C27.52403714 21.69580305 24.8932146 21.96977293 21.63945007 21.9078064 C20.25598046 21.87485704 18.87251708 21.84164558 17.48905945 21.80819702 C15.31014951 21.76087738 13.13126281 21.71646395 10.95219421 21.67709351 C8.8476749 21.63719627 6.74367774 21.58568589 4.63945007 21.5328064 C3.37963318 21.50775024 2.11981628 21.48269409 0.82182312 21.45687866 C-3.73682821 21.04843983 -6.50227367 20.12565231 -9.87226868 17.02890015 C-12.06763126 13.28865278 -12.43384804 10.39575587 -11.55976868 6.15390015 C-8.1969488 0.88548234 -6.04516845 0.03265855 0 0 Z " fill="#EFCABC" transform="translate(173.5597686767578,201.84609985351563)"/>
<path d="M0 0 C1.62905273 0.01353516 1.62905273 0.01353516 3.29101562 0.02734375 C4.41056641 0.07246094 5.53011719 0.11757812 6.68359375 0.1640625 C7.80701172 0.17050781 8.93042969 0.17695312 10.08789062 0.18359375 C15.68995925 0.29676685 19.4882384 0.37405012 24.12109375 3.7890625 C26.79024224 6.76311283 27.49935801 8.65764572 27.53759766 12.63354492 C27.55416412 13.5910112 27.57073059 14.54847748 27.58779907 15.53495789 C27.59105194 16.5611171 27.59430481 17.58727631 27.59765625 18.64453125 C27.61323578 19.70190994 27.62881531 20.75928864 27.64486694 21.84870911 C27.69239679 25.22465293 27.72016198 28.60038947 27.74609375 31.9765625 C27.78253351 35.36330218 27.82308544 38.74992303 27.8687439 42.1365509 C27.8960596 44.24429891 27.91737179 46.35213444 27.93228149 48.46000671 C27.94254364 49.40801651 27.95280579 50.35602631 27.96337891 51.33276367 C27.96987457 52.17119308 27.97637024 53.0096225 27.98306274 53.87345886 C27.91169226 55.79781387 27.91169226 55.79781387 29.12109375 56.7890625 C31.43109375 56.7890625 33.74109375 56.7890625 36.12109375 56.7890625 C36.45109375 44.9090625 36.78109375 33.0290625 37.12109375 20.7890625 C49.19748416 24.23945976 56.69036265 31.11162219 63.12109375 41.7890625 C71.08540565 56.97682008 68.12109375 66.48101725 68.12109375 86.7890625 C28.19109375 86.7890625 -11.73890625 86.7890625 -52.87890625 86.7890625 C-52.87890625 45.6370625 -52.87890625 45.6370625 -40.87890625 31.7890625 C-35.97027186 27.25466797 -28.81556754 20.7890625 -21.87890625 20.7890625 C-21.8538501 21.8085498 -21.82879395 22.82803711 -21.80297852 23.87841797 C-21.70893621 27.65426604 -21.60870788 31.42992877 -21.5065918 35.20556641 C-21.46323087 36.84093903 -21.42155664 38.47635727 -21.3815918 40.11181641 C-21.32391713 42.46010091 -21.26021496 44.80815554 -21.1953125 47.15625 C-21.17860001 47.88963593 -21.16188751 48.62302185 -21.14466858 49.37863159 C-21.09252663 53.21108558 -21.09252663 53.21108558 -19.87890625 56.7890625 C-17.87935879 56.83160606 -15.87848989 56.82987033 -13.87890625 56.7890625 C-12.66972405 55.80050226 -12.66972405 55.80050226 -12.76106262 53.89364624 C-12.76361557 53.06426544 -12.76616852 52.23488464 -12.76879883 51.38037109 C-12.76821976 50.44204437 -12.76764069 49.50371765 -12.76704407 48.53695679 C-12.7691539 47.51413605 -12.77126373 46.49131531 -12.7734375 45.4375 C-12.75997533 43.28514626 -12.74495107 41.13280184 -12.72851562 38.98046875 C-12.70571898 35.57665995 -12.69137018 32.17389426 -12.70385742 28.77001953 C-12.7126918 25.49174775 -12.68371862 22.21555657 -12.6484375 18.9375 C-12.66066849 17.92682465 -12.67289948 16.91614929 -12.6855011 15.87484741 C-12.58479969 9.97545171 -11.82771522 6.24979663 -7.55207825 2.00875854 C-5.01537436 0.15957167 -3.11058069 -0.05551425 0 0 Z " fill="#F37D7D" transform="translate(230.87890625,104.2109375)"/>
<path d="M0 0 C9.41906887 2.36203404 18.52697462 5.49620338 27.6875 8.6875 C29.17892263 9.20410479 30.67045837 9.72038314 32.16210938 10.23632812 C35.77605254 11.48713198 39.38844368 12.74232186 43 14 C40.28160102 18.15957737 37.48981455 21.77341522 34.0625 25.375 C24.99880677 35.23843087 20.58870674 44.34982283 20.48828125 57.84765625 C20.47164429 58.64457886 20.45500732 59.44150146 20.43786621 60.26257324 C20.38070619 63.19562289 20.34797486 66.12910793 20.3125 69.0625 C20.209375 75.641875 20.10625 82.22125 20 89 C-2.11 89 -24.22 89 -47 89 C-47 75 -47 75 -43.1875 70.5 C-41.95966797 69.46166016 -41.95966797 69.46166016 -40.70703125 68.40234375 C-37.50064777 65.55685192 -34.98170486 62.45072084 -32.375 59.0625 C-31.67080933 58.14960205 -31.67080933 58.14960205 -30.95239258 57.21826172 C-29.6260405 55.48536048 -28.31092195 53.7445908 -27 52 C-26.360625 51.15566406 -25.72125 50.31132812 -25.0625 49.44140625 C-15.98926865 36.98671599 -9.57241545 23.34324687 -3.85253906 9.10107422 C-2.6134825 6.04743138 -1.3092526 3.02413254 0 0 Z " fill="#F47E7E" transform="translate(291,336)"/>
<path d="M0 0 C0.20044922 0.55236328 0.40089844 1.10472656 0.60742188 1.67382812 C8.97647799 24.5796121 19.28462559 49.46986006 38.23046875 65.8515625 C39.05828857 66.59273315 39.05828857 66.59273315 39.90283203 67.34887695 C40.96878107 68.28891292 42.06377714 69.19751391 43.19091797 70.06323242 C44.69140625 71.39453125 44.69140625 71.39453125 47 75 C47 79.62 47 84.24 47 89 C24.89 89 2.78 89 -20 89 C-20.1875 69.25 -20.1875 69.25 -20.20776367 63.09472656 C-20.43434987 44.40097044 -26.36396607 33.84256685 -39.046875 20.296875 C-40.81043231 18.22293161 -41.84860526 16.43470678 -43 14 C-35.31986461 10.77609872 -27.49265637 8.0503607 -19.59301758 5.42578125 C-17.53994017 4.74249181 -15.48968524 4.0511487 -13.43945312 3.359375 C-12.12776611 2.9213897 -10.81592282 2.4838721 -9.50390625 2.046875 C-8.32642822 1.65338867 -7.1489502 1.25990234 -5.93579102 0.85449219 C-3 0 -3 0 0 0 Z " fill="#F37D7D" transform="translate(186,336)"/>
<path d="M0 0 C5.69104169 2.35844971 9.08646418 7.43099513 13 12 C13.73347656 12.82371094 14.46695313 13.64742188 15.22265625 14.49609375 C15.91230469 15.30175781 16.60195312 16.10742188 17.3125 16.9375 C17.92738281 17.64777344 18.54226562 18.35804688 19.17578125 19.08984375 C25.08429005 28.51562331 25.59073185 38.05720794 25.57421875 48.87890625 C25.58668996 50.38298652 25.60103132 51.88705233 25.61714172 53.39109802 C25.65486269 57.31441331 25.6703057 61.23747707 25.67993164 65.16094971 C25.69981689 71.47082752 25.75647949 77.78051706 25.80869484 84.09019279 C25.8240307 86.28943944 25.83122574 88.48859082 25.83683777 90.68788147 C25.84384979 92.02702889 25.85095038 93.36617586 25.8581543 94.70532227 C25.86163376 95.87571548 25.86511322 97.0461087 25.86869812 98.25196838 C25.81272653 100.96213361 25.81272653 100.96213361 27 103 C12.81 103 -1.38 103 -16 103 C-16.33 102.34 -16.66 101.68 -17 101 C-16.505 100.01 -16.505 100.01 -16 99 C-15.89926384 96.65867149 -15.86436686 94.31443363 -15.8581543 91.97094727 C-15.85467987 91.24705307 -15.85120544 90.52315887 -15.84762573 89.77732849 C-15.84026387 88.20151604 -15.83492079 86.62569319 -15.83133507 85.04986763 C-15.82416381 82.54723381 -15.80848834 80.04479542 -15.78999329 77.54222107 C-15.73758383 70.42506746 -15.68964029 63.30801586 -15.67407227 56.19067383 C-15.66392613 51.83742515 -15.63442648 47.48466131 -15.59275246 43.13160515 C-15.58052179 41.48003769 -15.57530654 39.82840146 -15.57755089 38.17679024 C-15.58910425 26.88983807 -15.07340192 16.08808231 -7.5 7 C-6.9328125 6.29875 -6.365625 5.5975 -5.78125 4.875 C-3.98715217 2.98647596 -2.12891956 1.49397864 0 0 Z " fill="#7AC08A" transform="translate(131,355)"/>
<path d="M0 0 C1.77287888 -0.0129007 1.77287888 -0.0129007 3.58157349 -0.02606201 C4.88498184 -0.03032196 6.1883902 -0.03458191 7.53129578 -0.03897095 C8.91262519 -0.04687129 10.29395254 -0.0551402 11.67527771 -0.06375122 C16.21800259 -0.08997834 20.76073673 -0.10527913 25.30351257 -0.11953735 C26.8666605 -0.12489668 28.42980836 -0.13027418 29.99295616 -0.13566971 C36.49455752 -0.1572991 42.99615638 -0.17603634 49.49778461 -0.1872921 C58.81912736 -0.20353495 68.14005349 -0.23671974 77.46123916 -0.29369295 C84.01332048 -0.33237706 90.5652903 -0.35192293 97.11748284 -0.35721266 C101.0318733 -0.36086817 104.94581949 -0.37290972 108.86008644 -0.4053154 C112.54315542 -0.43536987 116.22551073 -0.44171786 119.90867615 -0.42993164 C121.90328647 -0.42960538 123.89785257 -0.45408844 125.89230347 -0.47930908 C135.63782915 -0.41120641 135.63782915 -0.41120641 138.72018433 2.62786865 C139.28779984 3.46145905 139.85541534 4.29504944 140.44023132 5.15390015 C140.77023132 5.48390015 141.10023132 5.81390015 141.44023132 6.15390015 C141.8263245 11.17311139 141.45881798 14.09041811 138.44023132 18.15390015 C134.99088905 21.60324242 131.4631117 21.27010578 126.70858765 21.29734802 C125.95157059 21.29681931 125.19455353 21.29629059 124.41459656 21.29574585 C123.60928497 21.29922028 122.80397339 21.3026947 121.97425842 21.30627441 C120.22876104 21.3136159 118.48325441 21.31896983 116.73774529 21.32256508 C113.97671828 21.32973883 111.21586812 21.34541006 108.45489502 21.36390686 C100.60603684 21.41634944 92.75727874 21.46439728 84.9082489 21.47982788 C80.10536208 21.48988887 75.30292496 21.51915856 70.50021553 21.56114769 C68.66898557 21.57348308 66.8376922 21.57857433 65.00642204 21.57634926 C62.44928 21.57400563 59.89343828 21.59608714 57.33647156 21.62387085 C56.57743027 21.61726944 55.81838898 21.61066803 55.03634644 21.60386658 C52.68631653 21.60096849 52.68631653 21.60096849 49.44023132 22.15390015 C47.6315858 24.0712888 47.6315858 24.0712888 46.44023132 26.15390015 C43.08476257 26.54452515 43.08476257 26.54452515 39.25273132 26.40390015 C37.34427429 26.34975952 37.34427429 26.34975952 35.39726257 26.29452515 C34.42144226 26.2481189 33.44562195 26.20171265 32.44023132 26.15390015 C32.11023132 26.81390015 31.78023132 27.47390015 31.44023132 28.15390015 C31.31648132 27.34952515 31.19273132 26.54515015 31.06523132 25.71640015 C30.85898132 24.87077515 30.65273132 24.02515015 30.44023132 23.15390015 C27.52403714 21.69580305 24.8932146 21.96977293 21.63945007 21.9078064 C20.25598046 21.87485704 18.87251708 21.84164558 17.48905945 21.80819702 C15.31014951 21.76087738 13.13126281 21.71646395 10.95219421 21.67709351 C8.8476749 21.63719627 6.74367774 21.58568589 4.63945007 21.5328064 C3.37963318 21.50775024 2.11981628 21.48269409 0.82182312 21.45687866 C-3.73682821 21.04843983 -6.50227367 20.12565231 -9.87226868 17.02890015 C-12.06763126 13.28865278 -12.43384804 10.39575587 -11.55976868 6.15390015 C-8.1969488 0.88548234 -6.04516845 0.03265855 0 0 Z " fill="#F57E7E" transform="translate(173.5597686767578,201.84609985351563)"/>
<path d="M0 0 C1.0209375 0.433125 1.0209375 0.433125 2.0625 0.875 C5.32893093 2.12597355 8.62846123 3.07447955 12 4 C12.20302734 5.34578125 12.20302734 5.34578125 12.41015625 6.71875 C14.86512751 20.94876303 19.89395699 33.64753228 29 45 C29.75667969 45.97066406 30.51335937 46.94132812 31.29296875 47.94140625 C34.06026167 51.24167477 37.24067961 53.75568533 40.6875 56.3125 C41.26822266 56.75400391 41.84894531 57.19550781 42.44726562 57.65039062 C45.59248611 60.03073543 45.59248611 60.03073543 49 62 C49.3125 64.25 49.3125 64.25 49 67 C45.56650173 70.25766628 42.29338236 71.86128708 37.83618164 73.35009766 C36.61463882 73.76377594 35.39309601 74.17745422 34.13453674 74.60366821 C32.80981618 75.04068744 31.48502082 75.47748002 30.16015625 75.9140625 C28.79131691 76.37347475 27.42278598 76.83380683 26.05455017 77.29501343 C22.46124801 78.50350571 18.86390709 79.69949863 15.26556396 80.8928833 C11.61526861 82.10594031 7.96894515 83.33081298 4.32226562 84.5546875 C-2.10154597 86.70878142 -8.52868343 88.85262946 -14.95835876 90.98916626 C-17.97284217 91.99097459 -20.98656075 92.99505573 -24 94 C-25.84117302 92.15882698 -25.25894441 89.34983191 -25.3125 86.875 C-25.21756491 79.62037663 -24.14381852 76.08205391 -19.01171875 71.05078125 C-16.01138615 68.33027241 -12.91296167 65.74609346 -9.77734375 63.18359375 C-3.8702122 58.24810253 0.51772452 53.11212012 1.2734375 45.1015625 C1.50806322 37.07014371 0.2603091 31.44496353 -2.87109375 24.09375 C-5.77765767 16.12835685 -4.25092567 9.33800419 -0.875 1.80078125 C-0.441875 0.90939453 -0.441875 0.90939453 0 0 Z " fill="#570E3B" transform="translate(153,250)"/>
<path d="M0 0 C0.66 0 1.32 0 2 0 C5.40096889 6.99931545 7.26801836 13.20325903 6 21 C5.22420517 23.12605366 4.38693171 25.23035833 3.5 27.3125 C0.28477795 35.01620866 -0.50892051 42.62303451 1.76953125 50.7421875 C3.40726757 54.72234349 5.28630328 58.66567635 9 61 C10.051875 60.773125 11.10375 60.54625 12.1875 60.3125 C16 60 16 60 18.2421875 61.546875 C19.00789063 62.21203125 19.77359375 62.8771875 20.5625 63.5625 C22.75534773 65.54114123 22.75534773 65.54114123 25 67 C28.51059123 66.66929536 28.51059123 66.66929536 31 65 C29.10846627 67.43197193 27.32347246 69.7169616 25 71.75 C20.42713826 76.89446945 18.57405539 83.25484916 18 90 C11.23596971 89.36373437 5.06995116 87.23885706 -1.35546875 85.10546875 C-2.53466385 84.71684158 -3.71385895 84.32821442 -4.92878723 83.92781067 C-7.41345215 83.1063219 -9.89705063 82.28160145 -12.37963867 81.45385742 C-14.92092038 80.60665469 -17.46477802 79.76803823 -20.01147461 78.93725586 C-23.69274865 77.73455273 -27.36837968 76.51592326 -31.04296875 75.29296875 C-32.18154831 74.92302292 -33.32012787 74.55307709 -34.49320984 74.17192078 C-35.55143448 73.81507706 -36.60965912 73.45823334 -37.69995117 73.09057617 C-38.62925949 72.78270676 -39.55856781 72.47483734 -40.51603699 72.15763855 C-43.34886986 70.83741095 -44.99592222 69.38455366 -47 67 C-47.5546875 64.48046875 -47.5546875 64.48046875 -47 62 C-44.9453125 60.11328125 -44.9453125 60.11328125 -42.125 58.3125 C-27.247573 48.07591351 -17.70608188 34.4939162 -13 17 C-12.74484123 14.79451877 -12.51399121 12.58603025 -12.3125 10.375 C-11.9296875 7.44140625 -11.9296875 7.44140625 -11 5 C-7.84626606 2.81376749 -4.69131833 1.91794689 -1 1 C-0.67 0.67 -0.34 0.34 0 0 Z " fill="#560E3B" transform="translate(322,250)"/>
<path d="M0 0 C0.75884491 -0.00807175 1.51768982 -0.01614349 2.29953003 -0.02445984 C3.91190291 -0.03832129 5.5243054 -0.04903418 7.13671875 -0.05688477 C9.58651899 -0.07400443 12.03493659 -0.11785731 14.484375 -0.16210938 C16.05207342 -0.17224445 17.61978332 -0.180758 19.1875 -0.1875 C19.91381622 -0.20500809 20.64013245 -0.22251617 21.38845825 -0.24055481 C26.84542591 -0.2176489 30.0432408 1.02858114 34.4921875 4.23828125 C37.46614533 7.9134007 37.87583256 10.75838348 37.890625 15.421875 C37.89642578 17.1843457 37.89642578 17.1843457 37.90234375 18.98242188 C37.89074219 20.20123047 37.87914062 21.42003906 37.8671875 22.67578125 C37.87878906 23.89072266 37.89039063 25.10566406 37.90234375 26.35742188 C37.89847656 27.53369141 37.89460938 28.70996094 37.890625 29.921875 C37.88724121 30.98978271 37.88385742 32.05769043 37.88037109 33.15795898 C37.4105511 36.88608407 36.5892349 39.10770054 34.4921875 42.23828125 C29.34213828 46.05538123 25.48725853 46.81592021 19.1875 46.6640625 C18.0406221 46.65913033 18.0406221 46.65913033 16.87057495 46.65409851 C15.26877208 46.64374295 13.66700469 46.62390509 12.06542969 46.5949707 C9.6033079 46.55053073 7.14216247 46.53347377 4.6796875 46.52148438 C3.11977744 46.50807394 1.55987946 46.49315476 0 46.4765625 C-1.10769241 46.4654821 -1.10769241 46.4654821 -2.23776245 46.45417786 C-7.38943413 46.35665962 -7.38943413 46.35665962 -8.5078125 45.23828125 C-8.60576561 43.86218243 -8.63579338 42.48114243 -8.63720703 41.1015625 C-8.64035919 40.22395264 -8.64351135 39.34634277 -8.64675903 38.44213867 C-8.6447348 37.48799072 -8.64271057 36.53384277 -8.640625 35.55078125 C-8.64158173 34.57794189 -8.64253845 33.60510254 -8.64352417 32.6027832 C-8.64420608 30.54150325 -8.64235103 28.48022117 -8.63818359 26.41894531 C-8.6328355 23.25190437 -8.63812822 20.08500525 -8.64453125 16.91796875 C-8.64387047 14.9205726 -8.64258931 12.92317654 -8.640625 10.92578125 C-8.64264923 9.9716333 -8.64467346 9.01748535 -8.64675903 8.03442383 C-8.64360687 7.15681396 -8.64045471 6.2792041 -8.63720703 5.375 C-8.63641144 4.59858154 -8.63561584 3.82216309 -8.63479614 3.0222168 C-8.32125077 -1.38263976 -3.39831976 0.03399386 0 0 Z " fill="#F0CBBC" transform="translate(358.5078125,400.76171875)"/>
<path d="M0 0 C3.09819261 2.86903635 5.09456123 6.1772833 7.3046875 9.74609375 C8.92931544 12.16800058 8.92931544 12.16800058 11.67578125 13.76953125 C14 16 14 16 14.48828125 19.890625 C14.45523738 21.3445554 14.39586963 22.79808575 14.3125 24.25 C14.28994141 24.99507813 14.26738281 25.74015625 14.24414062 26.5078125 C14.18543561 28.339409 14.09575757 30.16996653 14 32 C12.783125 32.2475 11.56625 32.495 10.3125 32.75 C5.74660461 33.89753477 2.39997743 35.69529793 -0.11465454 39.83499146 C-1.12130018 42.29662538 -1.26602051 44.11072626 -1.29052734 46.76513672 C-1.30328705 47.70646454 -1.31604675 48.64779236 -1.32919312 49.61764526 C-1.33141876 50.6281192 -1.33364441 51.63859314 -1.3359375 52.6796875 C-1.3425943 53.72520782 -1.3492511 54.77072815 -1.35610962 55.84793091 C-1.36622977 58.05859621 -1.37092684 60.26929202 -1.37060547 62.47998047 C-1.37497496 65.85565756 -1.4112924 69.23002325 -1.44921875 72.60546875 C-1.4550878 74.75520387 -1.4590566 76.90494519 -1.4609375 79.0546875 C-1.47530853 80.06111298 -1.48967957 81.06753845 -1.50448608 82.10446167 C-1.46674087 87.91741023 -1.02337363 91.4794038 3 96 C4.65 97.32 6.3 98.64 8 100 C-2.23 100 -12.46 100 -23 100 C-22.01 99.505 -22.01 99.505 -21 99 C-20.99120064 97.7554454 -20.99120064 97.7554454 -20.98222351 96.48574829 C-20.92409165 88.63025723 -20.85189915 80.77504431 -20.76428509 72.9198246 C-20.71973782 68.88228005 -20.68044828 64.84483277 -20.65356445 60.80712891 C-20.62737401 56.90359786 -20.58686334 53.00044433 -20.53681374 49.0971489 C-20.5202506 47.61502182 -20.5086711 46.13282961 -20.50238609 44.65062332 C-20.41882299 26.73977216 -15.89845585 18.13999384 -3.953125 5.19921875 C-1.87288871 2.95857208 -1.87288871 2.95857208 0 0 Z " fill="#79BE89" transform="translate(341,358)"/>
<path d="M0 0 C3.37008391 1.01102517 6.23972103 2.13569115 9.3125 3.875 C24.82652145 11.78061246 42.57589149 11.37287585 59 7 C63.41247353 5.5040868 67.70867697 3.81096222 72 2 C73.66556896 1.33059558 75.33186249 0.66297773 77 0 C67.24005235 21.84219796 55.44625796 39.63122467 39 57 C36.64012009 55.0254066 34.30989849 53.03198171 32 51 C31.45988281 50.52820313 30.91976562 50.05640625 30.36328125 49.5703125 C16.68790991 36.7889727 5.27680706 17.87813737 0 0 Z " fill="#7AC08A" transform="translate(200,345)"/>
<path d="M0 0 C22.11 0 44.22 0 67 0 C67.495 9.405 67.495 9.405 68 19 C68.99 20.485 68.99 20.485 70 22 C45.91 22 21.82 22 -3 22 C-2.34 20.68 -1.68 19.36 -1 18 C-0.505 9.09 -0.505 9.09 0 0 Z " fill="#F58080" transform="translate(244,436)"/>
<path d="M0 0 C22.11 0 44.22 0 67 0 C67.495 8.91 67.495 8.91 68 18 C68.99 19.98 68.99 19.98 70 22 C45.91 22 21.82 22 -3 22 C-2.01 20.515 -2.01 20.515 -1 19 C-0.67 12.73 -0.34 6.46 0 0 Z " fill="#F58080" transform="translate(166,436)"/>
<path d="M0 0 C0.65226563 0.13277344 1.30453125 0.26554687 1.9765625 0.40234375 C2.85054687 0.57894531 3.72453125 0.75554687 4.625 0.9375 C5.91277344 1.19853516 5.91277344 1.19853516 7.2265625 1.46484375 C8.59941406 1.72974609 8.59941406 1.72974609 10 2 C10.88042969 2.18175781 11.76085937 2.36351562 12.66796875 2.55078125 C23.69208581 4.03703384 36.42983056 4.44045947 46.9765625 0.65625 C49 0 49 0 53 0 C54.23828125 1.57421875 54.23828125 1.57421875 55.3125 3.6875 C57.86272651 8.17430476 60.65660381 10.2747318 65 13 C56.11630323 22.85873666 41.76140369 26.30602743 29.0546875 27.3125 C15.67540885 27.89266198 3.14403779 24.55527986 -8 17 C-9.36765066 15.7018909 -10.71192868 14.37710851 -12 13 C-11.46890625 12.64808594 -10.9378125 12.29617188 -10.390625 11.93359375 C-5.39983172 8.44550283 -2.63633237 5.4923591 0 0 Z " fill="#EDC8B9" transform="translate(212,318)"/>
<path d="M0 0 C0.66 0 1.32 0 2 0 C5.40096889 6.99931545 7.26801836 13.20325903 6 21 C5.22420517 23.12605366 4.38693171 25.23035833 3.5 27.3125 C0.28477795 35.01620866 -0.50892051 42.62303451 1.76953125 50.7421875 C3.40726757 54.72234349 5.28630328 58.66567635 9 61 C10.051875 60.773125 11.10375 60.54625 12.1875 60.3125 C16 60 16 60 18.2421875 61.546875 C19.00789063 62.21203125 19.77359375 62.8771875 20.5625 63.5625 C22.75534773 65.54114123 22.75534773 65.54114123 25 67 C28.51059123 66.66929536 28.51059123 66.66929536 31 65 C29.10846627 67.43197193 27.32347246 69.7169616 25 71.75 C20.42713826 76.89446945 18.57405539 83.25484916 18 90 C14.535 89.505 14.535 89.505 11 89 C10.98582031 88.38253906 10.97164063 87.76507813 10.95703125 87.12890625 C10.42043726 77.60073725 7.22553914 71.77420174 0.1875 65.375 C-2.29051072 63.24834901 -4.79932797 61.1651997 -7.3203125 59.08984375 C-12.13110353 55.05126457 -15.4531731 52.00177867 -16.34375 45.484375 C-16.70933764 38.6478861 -15.26358049 33.31873619 -12.8605957 26.953125 C-10.18924262 19.47448575 -10.10597899 11.8713486 -10 4 C-9.36191406 3.79503906 -8.72382813 3.59007812 -8.06640625 3.37890625 C-6.82697266 2.97478516 -6.82697266 2.97478516 -5.5625 2.5625 C-4.73878906 2.29566406 -3.91507812 2.02882812 -3.06640625 1.75390625 C-1.03780412 1.17844506 -1.03780412 1.17844506 0 0 Z " fill="#741A51" transform="translate(322,250)"/>
<path d="M0 0 C0.33 0 0.66 0 1 0 C1.03738281 0.80824219 1.07476562 1.61648438 1.11328125 2.44921875 C1.17902344 3.51785156 1.24476563 4.58648437 1.3125 5.6875 C1.37050781 6.74324219 1.42851562 7.79898437 1.48828125 8.88671875 C2.04356897 12.26507231 2.9926525 14.24919046 5 17 C9.09753777 19.04876888 14.37153757 18.22907799 18.875 18.25 C19.97714844 18.270625 21.07929688 18.29125 22.21484375 18.3125 C23.80619141 18.32023437 23.80619141 18.32023437 25.4296875 18.328125 C26.88737549 18.34214355 26.88737549 18.34214355 28.37451172 18.35644531 C31.45257242 17.93855721 32.78733056 17.15153901 35 15 C36.0541518 11.83754459 36.31275672 9.13051782 36.5625 5.8125 C36.64628906 4.72582031 36.73007812 3.63914062 36.81640625 2.51953125 C36.90728516 1.27236328 36.90728516 1.27236328 37 0 C40.76807693 3.25424825 41.8396949 6.52350565 42.37109375 11.41796875 C42.51493416 19.5830273 42.12161427 26.26873553 37 33 C34.98080853 35.03437336 32.92909372 36.85995679 30.671875 38.625 C28.58825164 40.33863417 28.06126358 41.38445032 27.79467773 44.06298828 C27.75802002 44.89040527 27.7213623 45.71782227 27.68359375 46.5703125 C27.64169922 47.46621094 27.59980469 48.36210937 27.55664062 49.28515625 C27.51732422 50.22230469 27.47800781 51.15945313 27.4375 52.125 C27.39431641 53.06988281 27.35113281 54.01476562 27.30664062 54.98828125 C27.2004106 57.32534172 27.09968729 59.6626513 27 62 C22.05 62 17.1 62 12 62 C11.96261719 60.75863281 11.92523438 59.51726562 11.88671875 58.23828125 C11.8210405 56.59632489 11.7545938 54.95439913 11.6875 53.3125 C11.66494141 52.49587891 11.64238281 51.67925781 11.61914062 50.83789062 C11.40887234 46.11641183 11.05188648 42.82198868 8 39 C6.35106075 37.46143606 6.35106075 37.46143606 4.5625 36.1875 C-0.14054273 32.34949896 -2.11523202 27.65430394 -4 22 C-4.69690338 13.75140584 -4.18067454 7.22286182 0 0 Z " fill="#828DC0" transform="translate(354,328)"/>
<path d="M0 0 C26.07 0 52.14 0 79 0 C79 25.80722892 79 25.80722892 76 34 C75.47212891 35.50046875 75.47212891 35.50046875 74.93359375 37.03125 C67.98177978 55.20232811 54.92057804 67.17916433 37.5390625 75.125 C31.45064928 77.55103439 25.62909503 78.12886832 19.125 78.0625 C17.39636719 78.04896484 17.39636719 78.04896484 15.6328125 78.03515625 C14.32957031 78.01775391 14.32957031 78.01775391 13 78 C13 77.67 13 77.34 13 77 C13.886875 76.773125 14.77375 76.54625 15.6875 76.3125 C17.12839644 75.88631936 18.56533471 75.44670797 20 75 C20.95777344 74.70480469 21.91554687 74.40960938 22.90234375 74.10546875 C35.90948002 69.64362685 46.12095174 62.06090351 53 50 C53.81404297 48.64648438 53.81404297 48.64648438 54.64453125 47.265625 C62.68740038 32.78454676 62.21848312 17.41185454 63 1 C42.21 1 21.42 1 0 1 C0 0.67 0 0.34 0 0 Z " fill="#DEA595" transform="translate(223,233)"/>
<path d="M0 0 C7.21809272 -0.46989392 12.15462316 -0.50581132 18 4 C20.7955081 7.79671871 21.38359735 10.50505945 21.3984375 15.18359375 C21.40423828 16.94606445 21.40423828 16.94606445 21.41015625 18.74414062 C21.39855469 19.96294922 21.38695312 21.18175781 21.375 22.4375 C21.38660156 23.65244141 21.39820313 24.86738281 21.41015625 26.11914062 C21.40628906 27.29541016 21.40242188 28.47167969 21.3984375 29.68359375 C21.39505371 30.75150146 21.39166992 31.81940918 21.38818359 32.91967773 C20.73999506 38.06319646 19.04870948 41.16977166 15 44.375 C10.26472302 46.83938071 5.19176385 46.33798101 0 46 C0.28294922 45.51926025 0.56589844 45.03852051 0.85742188 44.54321289 C4.63677252 37.28921759 4.59791224 30.48670186 4.5 22.4375 C4.51546875 21.16197266 4.5309375 19.88644531 4.546875 18.57226562 C4.51648748 11.25267286 3.95161916 6.21752776 0 0 Z " fill="#E8AC9B" transform="translate(375,401)"/>
<path d="M0 0 C1.23828125 1.57421875 1.23828125 1.57421875 2.3125 3.6875 C4.86272651 8.17430476 7.65660381 10.2747318 12 13 C8.28725335 17.5565527 3.20992598 19.57400393 -2 22 C-2 21.34 -2 20.68 -2 20 C-3.2684375 19.938125 -3.2684375 19.938125 -4.5625 19.875 C-10.20640893 18.43836864 -13.81712569 14.77431146 -17 10 C-17.125 6.8125 -17.125 6.8125 -17 4 C-11.45444514 1.57381975 -6.0585719 0 0 0 Z " fill="#E5A999" transform="translate(265,318)"/>
<path d="M0 0 C6.08695652 0.54347826 6.08695652 0.54347826 9 2 C11.0152985 1.93778791 11.0152985 1.93778791 13.25 1.625 C14.45269531 1.47998047 14.45269531 1.47998047 15.6796875 1.33203125 C17.58885535 1.05883383 19.48519465 0.69746035 21.375 0.3125 C24 0 24 0 27 2 C27.5 4.875 27.5 4.875 27 8 C22.71609306 12.53590146 17.71875461 14.05009636 11.625 14.4375 C6.22557918 14.34598439 1.79219767 11.79219767 -2 8 C-2.1875 5.0625 -2.1875 5.0625 -2 2 C-1.34 1.34 -0.68 0.68 0 0 Z " fill="#070606" transform="translate(226,283)"/>
<path d="M0 0 C2.55049551 2.55049551 2.2606479 4.23482754 2.2734375 7.71679688 C2.26570313 8.44962891 2.25796875 9.18246094 2.25 9.9375 C2.25773437 10.66646484 2.26546875 11.39542969 2.2734375 12.14648438 C2.25946171 15.95838223 2.16125927 17.7581111 0 21 C-3.00199614 21.38323355 -5.05526289 21.59737475 -7.66796875 19.9453125 C-9.69833059 16.98015063 -9.43437855 13.96374861 -9.375 10.5 C-9.38660156 9.82324219 -9.39820313 9.14648438 -9.41015625 8.44921875 C-9.39293124 5.5381927 -9.33568687 3.49122507 -7.66796875 1.05078125 C-5.08428132 -0.57688132 -2.97070588 -0.31603254 0 0 Z " fill="#0A0807" transform="translate(273,240)"/>
<path d="M0 0 C3.0625 0.3125 3.0625 0.3125 4.73046875 1.36328125 C6.75884941 4.33149811 6.49690803 7.34703174 6.4375 10.8125 C6.44910156 11.48925781 6.46070313 12.16601562 6.47265625 12.86328125 C6.45543859 15.77306549 6.3999337 17.81970827 4.73046875 20.2578125 C2.11776289 21.90987475 0.06449614 21.69573355 -2.9375 21.3125 C-5.43758943 17.56236585 -5.23351996 14.58738094 -5.1875 10.25 C-5.19523438 9.51716797 -5.20296875 8.78433594 -5.2109375 8.02929688 C-5.1834706 0.55143304 -5.1834706 0.55143304 0 0 Z " fill="#090807" transform="translate(206.9375,239.6875)"/>
<path d="M0 0 C1.32 0.66 2.64 1.32 4 2 C4.48798077 8.34375 4.48798077 8.34375 2.1875 11.4375 C0 13 0 13 -3 13 C-3.08086147 11.20906809 -3.13912702 9.41710372 -3.1875 7.625 C-3.22230469 6.62726563 -3.25710938 5.62953125 -3.29296875 4.6015625 C-3.14794922 3.31378906 -3.14794922 3.31378906 -3 2 C-2.01 1.34 -1.02 0.68 0 0 Z " fill="#E5C2B3" transform="translate(315,230)"/>
<path d="M0 0 C2.475 0.99 2.475 0.99 5 2 C5 5.63 5 9.26 5 13 C3.35 12.67 1.7 12.34 0 12 C-2.44897847 8.32653229 -2.31537716 6.33643601 -2 2 C-1.34 1.34 -0.68 0.68 0 0 Z " fill="#E0A695" transform="translate(160,230)"/>
<path d="M0 0 C0.33 0 0.66 0 1 0 C1 4.62 1 9.24 1 14 C0.01 14.33 -0.98 14.66 -2 15 C-1.34 10.05 -0.68 5.1 0 0 Z " fill="#4A0D32" transform="translate(311,255)"/>
</svg>
